<svg xmlns="http://www.w3.org/2000/svg" viewBox="0 0 100 100" id="open-book"><path d="M92 21.5H52c-.5-8.4-7.5-15-16-15H18c-1.1 0-2 .9-2 2v8H8c-1.1 0-2 .9-2 2v58c0 1.1.9 2 2 2h28c6.6 0 12 5.4 12 12v1c0 1.1.9 2 2 2h42c1.1 0 2-.9 2-2v-68c0-1.1-.9-2-2-2zm-56 53H10v-54h6v46c0 1.1.9 2 2 2h18c6.4 0 11.7 5.1 12 11.4-3-3.3-7.2-5.4-12-5.4zm12-4.6c-2.9-3.3-7.2-5.4-12-5.4H20v-54h16c6.6 0 12 5.4 12 12v47.4zm42 19.6H52v-6h38v6zm0-10H52v-54h38v54zm-32-42c0-1.1.9-2 2-2h22c1.1 0 2 .9 2 2s-.9 2-2 2H60c-1.1 0-2-.9-2-2zm0 10c0-1.1.9-2 2-2h22c1.1 0 2 .9 2 2s-.9 2-2 2H60c-1.1 0-2-.9-2-2zm0 10c0-1.1.9-2 2-2h22c1.1 0 2 .9 2 2s-.9 2-2 2H60c-1.1 0-2-.9-2-2zm0 10c0-1.1.9-2 2-2h14c1.1 0 2 .9 2 2s-.9 2-2 2H60c-1.1 0-2-.9-2-2z"></path></svg>